<svg width="32" height="32" viewBox="0 0 32 32" fill="none" xmlns="http://www.w3.org/2000/svg">
<path fill-rule="evenodd" clip-rule="evenodd" d="M9.95322 1.42101C11.5172 1.34901 12.0159 1.33301 15.9999 1.33301C19.9839 1.33301 20.4826 1.35034 22.0452 1.42101C23.6079 1.49167 24.6746 1.74101 25.6079 2.10234C26.5852 2.47167 27.4719 3.04901 28.2052 3.79567C28.9519 4.52767 29.5279 5.41301 29.8959 6.39167C30.2586 7.32501 30.5066 8.39167 30.5786 9.95167C30.6506 11.5183 30.6666 12.017 30.6666 15.9997C30.6666 19.9837 30.6492 20.4823 30.5786 22.0463C30.5079 23.6063 30.2586 24.673 29.8959 25.6063C29.5279 26.5851 28.9509 27.4719 28.2052 28.205C27.4719 28.9517 26.5852 29.5277 25.6079 29.8957C24.6746 30.2583 23.6079 30.5063 22.0479 30.5783C20.4826 30.6503 19.9839 30.6663 15.9999 30.6663C12.0159 30.6663 11.5172 30.649 9.95322 30.5783C8.39322 30.5077 7.32655 30.2583 6.39322 29.8957C5.41445 29.5276 4.52765 28.9507 3.79455 28.205C3.04839 27.4726 2.47097 26.5862 2.10255 25.6077C1.74122 24.6743 1.49322 23.6077 1.42122 22.0477C1.34922 20.481 1.33322 19.9823 1.33322 15.9997C1.33322 12.0157 1.35055 11.517 1.42122 9.95434C1.49189 8.39167 1.74122 7.32501 2.10255 6.39167C2.47152 5.41312 3.04938 4.52676 3.79589 3.79434C4.52794 3.04834 5.41385 2.47093 6.39189 2.10234C7.32522 1.74101 8.39189 1.49301 9.95189 1.42101H9.95322ZM21.9266 4.06101C20.3799 3.99034 19.9159 3.97567 15.9999 3.97567C12.0839 3.97567 11.6199 3.99034 10.0732 4.06101C8.64255 4.12634 7.86655 4.36501 7.34922 4.56634C6.66522 4.83301 6.17589 5.14901 5.66255 5.66234C5.17595 6.13574 4.80146 6.71205 4.56655 7.34901C4.36522 7.86634 4.12655 8.64234 4.06122 10.073C3.99055 11.6197 3.97589 12.0837 3.97589 15.9997C3.97589 19.9157 3.99055 20.3797 4.06122 21.9263C4.12655 23.357 4.36522 24.133 4.56655 24.6503C4.80122 25.2863 5.17589 25.8637 5.66255 26.337C6.13589 26.8237 6.71322 27.1983 7.34922 27.433C7.86655 27.6343 8.64255 27.873 10.0732 27.9383C11.6199 28.009 12.0826 28.0237 15.9999 28.0237C19.9172 28.0237 20.3799 28.009 21.9266 27.9383C23.3572 27.873 24.1332 27.6343 24.6506 27.433C25.3346 27.1663 25.8239 26.8503 26.3372 26.337C26.8239 25.8637 27.1986 25.2863 27.4332 24.6503C27.6346 24.133 27.8732 23.357 27.9386 21.9263C28.0092 20.3797 28.0239 19.9157 28.0239 15.9997C28.0239 12.0837 28.0092 11.6197 27.9386 10.073C27.8732 8.64234 27.6346 7.86634 27.4332 7.34901C27.1666 6.66501 26.8506 6.17567 26.3372 5.66234C25.8638 5.17577 25.2875 4.80129 24.6506 4.56634C24.1332 4.36501 23.3572 4.12634 21.9266 4.06101ZM14.1266 20.521C15.1728 20.9565 16.3377 21.0153 17.4225 20.6873C18.5072 20.3593 19.4444 19.6649 20.074 18.7227C20.7037 17.7804 20.9866 16.6488 20.8746 15.5211C20.7626 14.3935 20.2626 13.3396 19.4599 12.5397C18.9482 12.0283 18.3295 11.6368 17.6483 11.3932C16.9672 11.1496 16.2405 11.0602 15.5205 11.1312C14.8006 11.2022 14.1054 11.4319 13.485 11.8038C12.8645 12.1758 12.3342 12.6807 11.9323 13.2821C11.5304 13.8836 11.2668 14.5667 11.1606 15.2823C11.0543 15.9979 11.1081 16.7281 11.3179 17.4204C11.5278 18.1127 11.8885 18.7498 12.3742 19.286C12.8598 19.8221 13.4583 20.2439 14.1266 20.521ZM10.6692 10.669C11.3693 9.96897 12.2003 9.41368 13.115 9.03482C14.0296 8.65597 15.0099 8.46097 15.9999 8.46097C16.9899 8.46097 17.9702 8.65597 18.8848 9.03482C19.7995 9.41368 20.6305 9.96897 21.3306 10.669C22.0306 11.369 22.5859 12.2001 22.9647 13.1147C23.3436 14.0294 23.5386 15.0097 23.5386 15.9997C23.5386 16.9897 23.3436 17.97 22.9647 18.8846C22.5859 19.7992 22.0306 20.6303 21.3306 21.3303C19.9168 22.7441 17.9993 23.5384 15.9999 23.5384C14.0005 23.5384 12.083 22.7441 10.6692 21.3303C9.25544 19.9166 8.46119 17.9991 8.46119 15.9997C8.46119 14.0003 9.25544 12.0828 10.6692 10.669ZM25.2106 9.58367C25.384 9.42003 25.5229 9.22325 25.619 9.00497C25.715 8.7867 25.7663 8.55137 25.7698 8.31291C25.7733 8.07446 25.7288 7.83774 25.6392 7.61675C25.5495 7.39577 25.4165 7.19502 25.2478 7.02639C25.0792 6.85776 24.8785 6.72468 24.6575 6.63503C24.4365 6.54538 24.1998 6.50098 23.9613 6.50445C23.7229 6.50793 23.4875 6.55921 23.2693 6.65527C23.051 6.75133 22.8542 6.8902 22.6906 7.06367C22.3723 7.40105 22.1981 7.84917 22.2048 8.31291C22.2116 8.77666 22.3988 9.21951 22.7268 9.54746C23.0547 9.87542 23.4976 10.0626 23.9613 10.0694C24.4251 10.0762 24.8732 9.90193 25.2106 9.58367Z" fill="#CAD1CD"/>
</svg>
