<svg width="32" height="32" viewBox="0 0 32 32" fill="none" xmlns="http://www.w3.org/2000/svg">
<path d="M22.6668 11.9297C22.1761 12.143 21.6494 12.2897 21.0961 12.3537C21.6614 12.0203 22.0934 11.4923 22.2988 10.8643C21.7601 11.1783 21.1723 11.3992 20.5601 11.5177C20.3026 11.2478 19.9928 11.0331 19.6497 10.8869C19.3065 10.7406 18.9371 10.6658 18.5641 10.667C17.0534 10.667 15.8294 11.8737 15.8294 13.3603C15.8294 13.571 15.8534 13.7763 15.9001 13.9737C14.8165 13.9222 13.7556 13.6455 12.785 13.1611C11.8143 12.6767 10.9553 11.9953 10.2628 11.1603C10.0195 11.5698 9.89145 12.0374 9.8921 12.5137C9.8921 13.447 10.3761 14.2737 11.1094 14.755C10.6754 14.7414 10.2506 14.6258 9.86944 14.4177V14.451C9.87355 15.077 10.0945 15.6821 10.4947 16.1635C10.8948 16.6448 11.4494 16.9726 12.0641 17.091C11.6606 17.1977 11.2384 17.2132 10.8281 17.1363C11.0069 17.6748 11.349 18.1443 11.8068 18.4795C12.2646 18.8147 12.8154 18.9991 13.3828 19.007C12.4094 19.7571 11.2143 20.1623 9.98543 20.159C9.76543 20.159 9.5481 20.1457 9.33344 20.1217C10.5874 20.9154 12.0414 21.3358 13.5254 21.3337C18.5574 21.3337 21.3081 17.2297 21.3081 13.6697L21.2988 13.3203C21.8352 12.9434 22.2987 12.4722 22.6668 11.9297Z" fill="#CAD1CD"/>
<path d="M8.00011 5.33366C7.29287 5.33366 6.61459 5.61461 6.11449 6.11471C5.6144 6.6148 5.33345 7.29308 5.33345 8.00033V24.0003C5.33345 24.7076 5.6144 25.3858 6.11449 25.8859C6.61459 26.386 7.29287 26.667 8.00011 26.667H24.0001C24.7074 26.667 25.3856 26.386 25.8857 25.8859C26.3858 25.3858 26.6668 24.7076 26.6668 24.0003V8.00033C26.6668 7.29308 26.3858 6.6148 25.8857 6.11471C25.3856 5.61461 24.7074 5.33366 24.0001 5.33366H8.00011ZM8.00011 2.66699H24.0001C25.4146 2.66699 26.7712 3.2289 27.7713 4.22909C28.7715 5.22928 29.3334 6.58584 29.3334 8.00033V24.0003C29.3334 25.4148 28.7715 26.7714 27.7713 27.7716C26.7712 28.7718 25.4146 29.3337 24.0001 29.3337H8.00011C6.58562 29.3337 5.22907 28.7718 4.22888 27.7716C3.22868 26.7714 2.66678 25.4148 2.66678 24.0003V8.00033C2.66678 6.58584 3.22868 5.22928 4.22888 4.22909C5.22907 3.2289 6.58562 2.66699 8.00011 2.66699V2.66699Z" fill="#CAD1CD"/>
</svg>
