<svg width="32" height="32" viewBox="0 0 32 32" fill="none" xmlns="http://www.w3.org/2000/svg">
<path d="M14.2602 11.9167V13.7527H12.9162V15.9967H14.2602V22.6673H17.0228V15.9967H18.8762C18.8762 15.9967 19.0508 14.9207 19.1348 13.7433H17.0335V12.21C17.0335 11.9793 17.3348 11.6713 17.6335 11.6713H19.1375V9.33398H17.0908C14.1922 9.33398 14.2602 11.5807 14.2602 11.9167Z" fill="#CAD1CD"/>
<path d="M8.00011 5.33366C7.29287 5.33366 6.61459 5.61461 6.11449 6.11471C5.6144 6.6148 5.33345 7.29308 5.33345 8.00033V24.0003C5.33345 24.7076 5.6144 25.3858 6.11449 25.8859C6.61459 26.386 7.29287 26.667 8.00011 26.667H24.0001C24.7074 26.667 25.3856 26.386 25.8857 25.8859C26.3858 25.3858 26.6668 24.7076 26.6668 24.0003V8.00033C26.6668 7.29308 26.3858 6.6148 25.8857 6.11471C25.3856 5.61461 24.7074 5.33366 24.0001 5.33366H8.00011ZM8.00011 2.66699H24.0001C25.4146 2.66699 26.7712 3.2289 27.7713 4.22909C28.7715 5.22928 29.3334 6.58584 29.3334 8.00033V24.0003C29.3334 25.4148 28.7715 26.7714 27.7713 27.7716C26.7712 28.7718 25.4146 29.3337 24.0001 29.3337H8.00011C6.58562 29.3337 5.22907 28.7718 4.22888 27.7716C3.22868 26.7714 2.66678 25.4148 2.66678 24.0003V8.00033C2.66678 6.58584 3.22868 5.22928 4.22888 4.22909C5.22907 3.2289 6.58562 2.66699 8.00011 2.66699V2.66699Z" fill="#CAD1CD"/>
</svg>
