<svg width="778" height="1018" viewBox="0 0 778 1018" fill="none" xmlns="http://www.w3.org/2000/svg">
<g filter="url(#filter0_d_2660_859)">
<rect x="141" y="21" width="606" height="329" rx="16" fill="#F4FDF8"/>
</g>
<g filter="url(#filter1_d_2660_859)">
<rect x="15" y="390" width="320" height="367" rx="16" fill="#F4FDF8"/>
</g>
<rect x="57" y="705" width="236" height="4" fill="#003015"/>
<g clip-path="url(#clip0_2660_859)">
<path d="M161.667 563.667V579.667H145.667V563.667H161.667ZM169.667 555.667H137.667V587.667H169.667V555.667ZM161.667 606.333V622.333H145.667V606.333H161.667ZM169.667 598.333H137.667V630.333H169.667V598.333ZM204.333 563.667V579.667H188.333V563.667H204.333ZM212.333 555.667H180.333V587.667H212.333V555.667ZM180.333 598.333H188.333V606.333H180.333V598.333ZM188.333 606.333H196.333V614.333H188.333V606.333ZM196.333 598.333H204.333V606.333H196.333V598.333ZM180.333 614.333H188.333V622.333H180.333V614.333ZM188.333 622.333H196.333V630.333H188.333V622.333ZM196.333 614.333H204.333V622.333H196.333V614.333ZM204.333 606.333H212.333V614.333H204.333V606.333ZM204.333 622.333H212.333V630.333H204.333V622.333ZM223 566.333C220.067 566.333 217.667 563.933 217.667 561V550.333H207C204.067 550.333 201.667 547.933 201.667 545C201.667 542.067 204.067 539.667 207 539.667H223C225.933 539.667 228.333 542.067 228.333 545V561C228.333 563.933 225.933 566.333 223 566.333ZM228.333 641V625C228.333 622.067 225.933 619.667 223 619.667C220.067 619.667 217.667 622.067 217.667 625V635.667H207C204.067 635.667 201.667 638.067 201.667 641C201.667 643.933 204.067 646.333 207 646.333H223C225.933 646.333 228.333 643.933 228.333 641ZM127 646.333H143C145.933 646.333 148.333 643.933 148.333 641C148.333 638.067 145.933 635.667 143 635.667H132.333V625C132.333 622.067 129.933 619.667 127 619.667C124.067 619.667 121.667 622.067 121.667 625V641C121.667 643.933 124.067 646.333 127 646.333ZM121.667 545V561C121.667 563.933 124.067 566.333 127 566.333C129.933 566.333 132.333 563.933 132.333 561V550.333H143C145.933 550.333 148.333 547.933 148.333 545C148.333 542.067 145.933 539.667 143 539.667H127C124.067 539.667 121.667 542.067 121.667 545Z" fill="#0A0903"/>
</g>
<circle cx="443.5" cy="157.5" r="52.5" fill="#DAF1E4"/>
<rect width="216" height="31" transform="translate(336 234)" fill="#F4FDF8"/>
<path d="M337.848 243.2H343.008C344.896 243.2 346.328 243.64 347.304 244.52C348.28 245.4 348.768 246.688 348.768 248.384C348.768 250.176 348.264 251.544 347.256 252.488C346.248 253.432 344.792 253.904 342.888 253.904H340.464V260H337.848V243.2ZM343.176 251.768C344.168 251.768 344.928 251.488 345.456 250.928C345.984 250.352 346.248 249.536 346.248 248.48C346.248 247.456 345.968 246.68 345.408 246.152C344.848 245.608 344.04 245.336 342.984 245.336H340.464V251.768H343.176ZM354.116 260.24C353.332 260.24 352.628 260.08 352.004 259.76C351.396 259.44 350.916 259 350.564 258.44C350.228 257.864 350.06 257.216 350.06 256.496C350.06 255.28 350.524 254.352 351.452 253.712C352.38 253.056 353.7 252.728 355.412 252.728H357.668V252.128C357.668 251.328 357.452 250.712 357.02 250.28C356.588 249.848 355.956 249.632 355.124 249.632C354.404 249.632 353.732 249.776 353.108 250.064C352.484 250.336 351.972 250.736 351.572 251.264L350.444 249.848C351.02 249.176 351.716 248.664 352.532 248.312C353.364 247.944 354.26 247.76 355.22 247.76C356.756 247.76 357.948 248.136 358.796 248.888C359.644 249.624 360.068 250.672 360.068 252.032V257.6C360.068 258.32 360.164 259.12 360.356 260H358.268C358.108 259.616 357.996 259.08 357.932 258.392H357.884C356.972 259.624 355.716 260.24 354.116 260.24ZM354.572 258.392C355.436 258.392 356.164 258.16 356.756 257.696C357.364 257.216 357.668 256.64 357.668 255.968V254.384H355.316C354.372 254.384 353.644 254.568 353.132 254.936C352.636 255.288 352.388 255.808 352.388 256.496C352.388 257.088 352.58 257.552 352.964 257.888C353.364 258.224 353.9 258.392 354.572 258.392ZM372.777 248L368.337 260.336C367.265 263.296 365.553 264.776 363.201 264.776C362.753 264.776 362.241 264.704 361.665 264.56V262.712C362.001 262.84 362.401 262.904 362.865 262.904C363.649 262.904 364.313 262.624 364.857 262.064C365.401 261.504 365.921 260.576 366.417 259.28L361.953 248H364.497L367.521 256.712L370.209 248H372.777ZM374.399 251.072C374.399 249.856 374.359 248.832 374.279 248H376.391C376.455 248.592 376.487 249.296 376.487 250.112H376.559C376.863 249.392 377.351 248.824 378.023 248.408C378.711 247.976 379.487 247.76 380.351 247.76C381.199 247.76 381.927 247.968 382.535 248.384C383.143 248.784 383.551 249.352 383.759 250.088C384.095 249.368 384.599 248.8 385.271 248.384C385.959 247.968 386.727 247.76 387.575 247.76C388.903 247.76 389.935 248.192 390.671 249.056C391.423 249.904 391.799 251.08 391.799 252.584V260H389.423V252.8C389.423 251.808 389.207 251.04 388.775 250.496C388.359 249.952 387.759 249.68 386.975 249.68C386.175 249.68 385.519 249.976 385.007 250.568C384.511 251.144 384.263 251.896 384.263 252.824V260H381.911V252.896C381.911 250.752 381.127 249.68 379.559 249.68C379.047 249.68 378.575 249.824 378.143 250.112C377.727 250.4 377.391 250.792 377.135 251.288C376.879 251.784 376.751 252.32 376.751 252.896V260H374.399V251.072ZM405.019 254.912H396.475C396.603 256 396.947 256.824 397.507 257.384C398.083 257.944 398.867 258.224 399.859 258.224C401.267 258.224 402.403 257.672 403.267 256.568L404.587 257.84C404.123 258.592 403.459 259.184 402.595 259.616C401.731 260.032 400.779 260.24 399.739 260.24C397.947 260.24 396.547 259.696 395.539 258.608C394.547 257.504 394.051 255.976 394.051 254.024C394.051 252.072 394.555 250.544 395.563 249.44C396.571 248.32 397.955 247.76 399.715 247.76C401.379 247.76 402.675 248.312 403.603 249.416C404.547 250.504 405.019 252.032 405.019 254V254.912ZM402.763 253.04C402.763 252 402.483 251.184 401.923 250.592C401.363 250 400.595 249.704 399.619 249.704C398.707 249.704 397.979 250.008 397.435 250.616C396.891 251.224 396.563 252.088 396.451 253.208H402.763V253.04ZM407.188 251.072C407.188 249.584 407.156 248.56 407.092 248H409.3C409.38 248.592 409.42 249.296 409.42 250.112H409.492C409.812 249.392 410.332 248.824 411.052 248.408C411.788 247.976 412.604 247.76 413.5 247.76C416.316 247.76 417.724 249.584 417.724 253.232V260H415.348V253.208C415.348 252.008 415.148 251.12 414.748 250.544C414.348 249.968 413.732 249.68 412.9 249.68C411.924 249.68 411.124 250.032 410.5 250.736C409.876 251.44 409.564 252.336 409.564 253.424V260H407.188V251.072ZM425.133 260.24C424.013 260.24 423.133 259.904 422.493 259.232C421.869 258.544 421.557 257.6 421.557 256.4V249.824H419.397V248H421.557V244.832L423.837 244.16H423.933V248H427.365V249.824H423.933V256.112C423.933 256.896 424.085 257.472 424.389 257.84C424.709 258.208 425.189 258.392 425.829 258.392C426.469 258.392 427.037 258.296 427.533 258.104L427.677 259.808C427.085 260.096 426.237 260.24 425.133 260.24ZM439.169 260.24C438.225 260.24 437.377 260.048 436.625 259.664C435.873 259.28 435.345 258.768 435.041 258.128L436.553 257.096C436.825 257.512 437.193 257.84 437.657 258.08C438.121 258.32 438.625 258.44 439.169 258.44C439.793 258.44 440.305 258.264 440.705 257.912C441.121 257.56 441.329 257.112 441.329 256.568C441.329 256.136 441.169 255.784 440.849 255.512C440.529 255.224 439.937 254.92 439.073 254.6C437.681 254.072 436.697 253.536 436.121 252.992C435.561 252.432 435.281 251.744 435.281 250.928C435.281 249.968 435.657 249.2 436.409 248.624C437.177 248.048 438.193 247.76 439.457 247.76C440.273 247.76 441.017 247.928 441.689 248.264C442.361 248.6 442.889 249.072 443.273 249.68L441.857 250.736C441.585 250.352 441.241 250.064 440.825 249.872C440.425 249.664 439.977 249.56 439.481 249.56C438.937 249.56 438.489 249.68 438.137 249.92C437.801 250.16 437.633 250.472 437.633 250.856C437.633 251.256 437.809 251.592 438.161 251.864C438.513 252.12 439.201 252.448 440.225 252.848C441.505 253.344 442.401 253.864 442.913 254.408C443.441 254.936 443.705 255.624 443.705 256.472C443.705 257.608 443.289 258.52 442.457 259.208C441.625 259.896 440.529 260.24 439.169 260.24ZM450.013 260.24C448.637 260.24 447.589 259.792 446.869 258.896C446.165 257.984 445.813 256.648 445.813 254.888V248H448.189V254.912C448.189 256.064 448.389 256.92 448.789 257.48C449.189 258.04 449.797 258.32 450.613 258.32C451.573 258.32 452.365 257.96 452.989 257.24C453.629 256.52 453.949 255.608 453.949 254.504V248H456.325V257.288C456.325 258.152 456.397 259.056 456.541 260H454.309C454.181 259.312 454.109 258.6 454.093 257.864H454.021C453.701 258.6 453.173 259.184 452.437 259.616C451.717 260.032 450.909 260.24 450.013 260.24ZM464.262 260.24C462.454 260.24 461.046 259.688 460.038 258.584C459.03 257.48 458.526 255.952 458.526 254C458.526 252.032 459.03 250.504 460.038 249.416C461.046 248.312 462.454 247.76 464.262 247.76C465.302 247.76 466.214 247.96 466.998 248.36C467.798 248.76 468.422 249.336 468.87 250.088L467.454 251.36C467.118 250.816 466.678 250.392 466.134 250.088C465.59 249.784 464.998 249.632 464.358 249.632C463.27 249.632 462.422 250.016 461.814 250.784C461.206 251.552 460.902 252.624 460.902 254C460.902 255.36 461.206 256.432 461.814 257.216C462.422 257.984 463.27 258.368 464.358 258.368C464.998 258.368 465.59 258.216 466.134 257.912C466.678 257.608 467.118 257.184 467.454 256.64L468.87 257.912C468.422 258.664 467.798 259.24 466.998 259.64C466.214 260.04 465.302 260.24 464.262 260.24ZM475.746 260.24C473.938 260.24 472.53 259.688 471.522 258.584C470.514 257.48 470.01 255.952 470.01 254C470.01 252.032 470.514 250.504 471.522 249.416C472.53 248.312 473.938 247.76 475.746 247.76C476.786 247.76 477.698 247.96 478.482 248.36C479.282 248.76 479.906 249.336 480.354 250.088L478.938 251.36C478.602 250.816 478.162 250.392 477.618 250.088C477.074 249.784 476.482 249.632 475.842 249.632C474.754 249.632 473.906 250.016 473.298 250.784C472.69 251.552 472.386 252.624 472.386 254C472.386 255.36 472.69 256.432 473.298 257.216C473.906 257.984 474.754 258.368 475.842 258.368C476.482 258.368 477.074 258.216 477.618 257.912C478.162 257.608 478.602 257.184 478.938 256.64L480.354 257.912C479.906 258.664 479.282 259.24 478.482 259.64C477.698 260.04 476.786 260.24 475.746 260.24ZM492.535 254.912H483.991C484.119 256 484.463 256.824 485.023 257.384C485.599 257.944 486.383 258.224 487.375 258.224C488.783 258.224 489.919 257.672 490.783 256.568L492.103 257.84C491.639 258.592 490.975 259.184 490.111 259.616C489.247 260.032 488.295 260.24 487.255 260.24C485.463 260.24 484.063 259.696 483.055 258.608C482.063 257.504 481.567 255.976 481.567 254.024C481.567 252.072 482.071 250.544 483.079 249.44C484.087 248.32 485.471 247.76 487.231 247.76C488.895 247.76 490.191 248.312 491.119 249.416C492.063 250.504 492.535 252.032 492.535 254V254.912ZM490.279 253.04C490.279 252 489.999 251.184 489.439 250.592C488.879 250 488.111 249.704 487.135 249.704C486.223 249.704 485.495 250.008 484.951 250.616C484.407 251.224 484.079 252.088 483.967 253.208H490.279V253.04ZM498.724 260.24C497.78 260.24 496.932 260.048 496.18 259.664C495.428 259.28 494.9 258.768 494.596 258.128L496.108 257.096C496.38 257.512 496.748 257.84 497.212 258.08C497.676 258.32 498.18 258.44 498.724 258.44C499.348 258.44 499.86 258.264 500.26 257.912C500.676 257.56 500.884 257.112 500.884 256.568C500.884 256.136 500.724 255.784 500.404 255.512C500.084 255.224 499.492 254.92 498.628 254.6C497.236 254.072 496.252 253.536 495.676 252.992C495.116 252.432 494.836 251.744 494.836 250.928C494.836 249.968 495.212 249.2 495.964 248.624C496.732 248.048 497.748 247.76 499.012 247.76C499.828 247.76 500.572 247.928 501.244 248.264C501.916 248.6 502.444 249.072 502.828 249.68L501.412 250.736C501.14 250.352 500.796 250.064 500.38 249.872C499.98 249.664 499.532 249.56 499.036 249.56C498.492 249.56 498.044 249.68 497.692 249.92C497.356 250.16 497.188 250.472 497.188 250.856C497.188 251.256 497.364 251.592 497.716 251.864C498.068 252.12 498.756 252.448 499.78 252.848C501.06 253.344 501.956 253.864 502.468 254.408C502.996 254.936 503.26 255.624 503.26 256.472C503.26 257.608 502.844 258.52 502.012 259.208C501.18 259.896 500.084 260.24 498.724 260.24ZM508.896 260.24C507.952 260.24 507.104 260.048 506.352 259.664C505.6 259.28 505.072 258.768 504.768 258.128L506.28 257.096C506.552 257.512 506.92 257.84 507.384 258.08C507.848 258.32 508.352 258.44 508.896 258.44C509.52 258.44 510.032 258.264 510.432 257.912C510.848 257.56 511.056 257.112 511.056 256.568C511.056 256.136 510.896 255.784 510.576 255.512C510.256 255.224 509.664 254.92 508.8 254.6C507.408 254.072 506.424 253.536 505.848 252.992C505.288 252.432 505.008 251.744 505.008 250.928C505.008 249.968 505.384 249.2 506.136 248.624C506.904 248.048 507.92 247.76 509.184 247.76C510 247.76 510.744 247.928 511.416 248.264C512.088 248.6 512.616 249.072 513 249.68L511.584 250.736C511.312 250.352 510.968 250.064 510.552 249.872C510.152 249.664 509.704 249.56 509.208 249.56C508.664 249.56 508.216 249.68 507.864 249.92C507.528 250.16 507.36 250.472 507.36 250.856C507.36 251.256 507.536 251.592 507.888 251.864C508.24 252.12 508.928 252.448 509.952 252.848C511.232 253.344 512.128 253.864 512.64 254.408C513.168 254.936 513.432 255.624 513.432 256.472C513.432 257.608 513.016 258.52 512.184 259.208C511.352 259.896 510.256 260.24 508.896 260.24ZM516.38 249.68H514.388V248H516.38V246.512C516.38 245.36 516.724 244.456 517.412 243.8C518.1 243.128 519.052 242.792 520.268 242.792C520.78 242.792 521.26 242.872 521.708 243.032C522.172 243.192 522.548 243.416 522.836 243.704L521.972 245.144C521.572 244.792 521.076 244.616 520.484 244.616C519.956 244.616 519.532 244.8 519.212 245.168C518.908 245.52 518.756 246.008 518.756 246.632V248H522.164V249.68H518.756V260H516.38V249.68ZM528.037 260.24C526.661 260.24 525.613 259.792 524.893 258.896C524.189 257.984 523.837 256.648 523.837 254.888V248H526.213V254.912C526.213 256.064 526.413 256.92 526.813 257.48C527.213 258.04 527.821 258.32 528.637 258.32C529.597 258.32 530.389 257.96 531.013 257.24C531.653 256.52 531.973 255.608 531.973 254.504V248H534.349V257.288C534.349 258.152 534.421 259.056 534.565 260H532.333C532.205 259.312 532.133 258.6 532.117 257.864H532.045C531.725 258.6 531.197 259.184 530.461 259.616C529.741 260.032 528.933 260.24 528.037 260.24ZM540.125 260.24C539.213 260.24 538.525 259.984 538.061 259.472C537.597 258.944 537.365 258.168 537.365 257.144V242.192H539.741V257.144C539.741 257.64 539.829 257.992 540.005 258.2C540.197 258.408 540.501 258.512 540.917 258.512C541.253 258.512 541.669 258.408 542.165 258.2L542.525 259.568C541.901 260.016 541.101 260.24 540.125 260.24Z" fill="#0A0903" fill-opacity="0.7"/>
<g clip-path="url(#clip1_2660_859)">
<path d="M439 163.6L434.333 158.933C433.813 158.413 432.987 158.413 432.467 158.933C431.947 159.453 431.947 160.28 432.467 160.8L438.053 166.387C438.573 166.907 439.413 166.907 439.933 166.387L454.067 152.267C454.587 151.747 454.587 150.92 454.067 150.4C453.547 149.88 452.72 149.88 452.2 150.4L439 163.6Z" fill="#008037"/>
</g>
<g clip-path="url(#clip2_2660_859)">
<rect x="375" y="390" width="372" height="628" rx="16" fill="#806B00"/>
<rect width="175" height="62" transform="translate(415 510)" fill="#806B00"/>
<path d="M420.808 556.392H426.376V534.264L419.992 538.008V532.584L428.488 527.4H432.424V556.392H437.944V561H420.808V556.392ZM455.299 561.48C451.427 561.48 448.451 560.008 446.371 557.064C444.323 554.12 443.299 549.832 443.299 544.2C443.299 538.568 444.323 534.28 446.371 531.336C448.451 528.392 451.427 526.92 455.299 526.92C459.203 526.92 462.179 528.392 464.227 531.336C466.275 534.28 467.299 538.568 467.299 544.2C467.299 549.832 466.275 554.12 464.227 557.064C462.179 560.008 459.203 561.48 455.299 561.48ZM455.299 557.016C459.267 557.016 461.251 552.744 461.251 544.2C461.251 535.624 459.267 531.336 455.299 531.336C451.363 531.336 449.395 535.624 449.395 544.2C449.395 552.744 451.363 557.016 455.299 557.016ZM482.159 561.48C478.287 561.48 475.311 560.008 473.231 557.064C471.183 554.12 470.159 549.832 470.159 544.2C470.159 538.568 471.183 534.28 473.231 531.336C475.311 528.392 478.287 526.92 482.159 526.92C486.063 526.92 489.039 528.392 491.087 531.336C493.135 534.28 494.159 538.568 494.159 544.2C494.159 549.832 493.135 554.12 491.087 557.064C489.039 560.008 486.063 561.48 482.159 561.48ZM482.159 557.016C486.127 557.016 488.111 552.744 488.111 544.2C488.111 535.624 486.127 531.336 482.159 531.336C478.223 531.336 476.255 535.624 476.255 544.2C476.255 552.744 478.223 557.016 482.159 557.016ZM502.346 553.992C503.562 553.992 504.538 554.44 505.274 555.336C506.042 556.2 506.426 557.368 506.426 558.84C506.426 560.76 505.882 562.744 504.794 564.792C503.738 566.872 502.33 568.584 500.57 569.928L498.17 567.192C498.97 566.488 499.674 565.624 500.282 564.6C500.922 563.576 501.402 562.504 501.722 561.384C501.626 561.416 501.45 561.432 501.194 561.432C500.362 561.432 499.658 561.112 499.082 560.472C498.506 559.832 498.218 559 498.218 557.976C498.218 556.792 498.602 555.832 499.37 555.096C500.138 554.36 501.13 553.992 502.346 553.992ZM522.378 561.48C518.506 561.48 515.53 560.008 513.45 557.064C511.402 554.12 510.378 549.832 510.378 544.2C510.378 538.568 511.402 534.28 513.45 531.336C515.53 528.392 518.506 526.92 522.378 526.92C526.282 526.92 529.258 528.392 531.306 531.336C533.354 534.28 534.378 538.568 534.378 544.2C534.378 549.832 533.354 554.12 531.306 557.064C529.258 560.008 526.282 561.48 522.378 561.48ZM522.378 557.016C526.346 557.016 528.33 552.744 528.33 544.2C528.33 535.624 526.346 531.336 522.378 531.336C518.442 531.336 516.474 535.624 516.474 544.2C516.474 552.744 518.442 557.016 522.378 557.016ZM549.237 561.48C545.365 561.48 542.389 560.008 540.309 557.064C538.261 554.12 537.237 549.832 537.237 544.2C537.237 538.568 538.261 534.28 540.309 531.336C542.389 528.392 545.365 526.92 549.237 526.92C553.141 526.92 556.117 528.392 558.165 531.336C560.213 534.28 561.237 538.568 561.237 544.2C561.237 549.832 560.213 554.12 558.165 557.064C556.117 560.008 553.141 561.48 549.237 561.48ZM549.237 557.016C553.205 557.016 555.189 552.744 555.189 544.2C555.189 535.624 553.205 531.336 549.237 531.336C545.301 531.336 543.333 535.624 543.333 544.2C543.333 552.744 545.301 557.016 549.237 557.016ZM576.096 561.48C572.224 561.48 569.248 560.008 567.168 557.064C565.12 554.12 564.096 549.832 564.096 544.2C564.096 538.568 565.12 534.28 567.168 531.336C569.248 528.392 572.224 526.92 576.096 526.92C580 526.92 582.976 528.392 585.024 531.336C587.072 534.28 588.096 538.568 588.096 544.2C588.096 549.832 587.072 554.12 585.024 557.064C582.976 560.008 580 561.48 576.096 561.48ZM576.096 557.016C580.064 557.016 582.048 552.744 582.048 544.2C582.048 535.624 580.064 531.336 576.096 531.336C572.16 531.336 570.192 535.624 570.192 544.2C570.192 552.744 572.16 557.016 576.096 557.016Z" fill="#F4FDF8"/>
<rect width="130" height="31" transform="translate(415 580)" fill="#806B00"/>
<path d="M421.264 606.24C420.176 606.24 419.152 606.008 418.192 605.544C417.248 605.08 416.488 604.44 415.912 603.624L417.256 602.28C417.752 602.92 418.376 603.44 419.128 603.84C419.88 604.224 420.624 604.416 421.36 604.416C422.304 604.416 423.064 604.176 423.64 603.696C424.232 603.216 424.528 602.584 424.528 601.8C424.528 601.288 424.424 600.84 424.216 600.456C424.024 600.072 423.68 599.704 423.184 599.352C422.704 598.984 422.016 598.584 421.12 598.152C419.408 597.32 418.2 596.536 417.496 595.8C416.808 595.048 416.464 594.176 416.464 593.184C416.464 591.904 416.928 590.88 417.856 590.112C418.784 589.344 420.016 588.96 421.552 588.96C422.624 588.96 423.6 589.192 424.48 589.656C425.376 590.12 426.024 590.744 426.424 591.528L424.984 592.584C424.6 592.024 424.104 591.584 423.496 591.264C422.888 590.944 422.248 590.784 421.576 590.784C420.68 590.784 419.968 591 419.44 591.432C418.928 591.848 418.672 592.416 418.672 593.136C418.672 593.568 418.768 593.936 418.96 594.24C419.152 594.544 419.504 594.864 420.016 595.2C420.544 595.52 421.368 595.96 422.488 596.52C424.008 597.272 425.096 598.048 425.752 598.848C426.408 599.632 426.736 600.56 426.736 601.632C426.736 602.544 426.504 603.352 426.04 604.056C425.592 604.744 424.952 605.28 424.12 605.664C423.304 606.048 422.352 606.24 421.264 606.24ZM443.471 594L440.471 606H438.623L435.719 596.184L432.815 606H430.967L427.967 594H430.103L432.047 603.216L434.783 594H436.655L439.391 603.216L441.335 594H443.471ZM446.662 591.912C446.214 591.912 445.862 591.792 445.606 591.552C445.35 591.312 445.222 590.984 445.222 590.568C445.222 590.152 445.35 589.824 445.606 589.584C445.862 589.328 446.214 589.2 446.662 589.2C447.11 589.2 447.462 589.328 447.718 589.584C447.99 589.824 448.126 590.152 448.126 590.568C448.126 590.984 447.99 591.312 447.718 591.552C447.462 591.792 447.11 591.912 446.662 591.912ZM445.654 594H447.694V606H445.654V594ZM451.129 597.024C451.129 596 451.097 594.992 451.033 594H452.905C452.953 594.592 452.977 595.224 452.977 595.896H453.025C453.361 595.256 453.881 594.744 454.585 594.36C455.289 593.96 456.049 593.76 456.865 593.76C458.417 593.76 459.633 594.312 460.513 595.416C461.393 596.52 461.833 598.048 461.833 600C461.833 601.264 461.625 602.368 461.209 603.312C460.793 604.24 460.201 604.96 459.433 605.472C458.681 605.984 457.801 606.24 456.793 606.24C455.961 606.24 455.233 606.08 454.609 605.76C453.985 605.44 453.529 604.992 453.241 604.416H453.169V611.808H451.129V597.024ZM456.481 604.68C457.505 604.68 458.313 604.256 458.905 603.408C459.497 602.544 459.793 601.384 459.793 599.928C459.793 598.472 459.505 597.352 458.929 596.568C458.353 595.784 457.545 595.392 456.505 595.392C455.529 595.392 454.729 595.712 454.105 596.352C453.481 596.992 453.169 597.808 453.169 598.8V600.984C453.169 602.088 453.473 602.984 454.081 603.672C454.689 604.344 455.489 604.68 456.481 604.68ZM474.263 600.792H465.623C465.735 602.008 466.095 602.936 466.703 603.576C467.311 604.2 468.151 604.512 469.223 604.512C470.663 604.512 471.807 603.944 472.655 602.808L473.807 603.912C473.343 604.648 472.695 605.224 471.863 605.64C471.047 606.04 470.143 606.24 469.151 606.24C467.375 606.24 465.999 605.696 465.023 604.608C464.047 603.52 463.559 601.992 463.559 600.024C463.559 598.072 464.047 596.544 465.023 595.44C466.015 594.32 467.375 593.76 469.103 593.76C470.719 593.76 471.983 594.312 472.895 595.416C473.807 596.504 474.263 598.032 474.263 600V600.792ZM472.391 599.112C472.391 597.96 472.087 597.056 471.479 596.4C470.887 595.744 470.063 595.416 469.007 595.416C468.015 595.416 467.223 595.752 466.631 596.424C466.055 597.096 465.719 598.048 465.623 599.28H472.391V599.112ZM486.761 606.24C485.705 606.24 484.873 605.904 484.265 605.232C483.657 604.544 483.353 603.6 483.353 602.4V595.584H481.193V594H483.353V590.808L485.297 590.208H485.393V594H488.801V595.584H485.393V602.208C485.393 603.024 485.545 603.632 485.849 604.032C486.153 604.416 486.625 604.608 487.265 604.608C487.953 604.608 488.513 604.52 488.945 604.344L489.089 605.856C488.561 606.112 487.785 606.24 486.761 606.24ZM495.945 606.24C494.761 606.24 493.729 605.992 492.849 605.496C491.985 604.984 491.313 604.256 490.833 603.312C490.369 602.368 490.137 601.264 490.137 600C490.137 598.736 490.369 597.632 490.833 596.688C491.313 595.744 491.985 595.024 492.849 594.528C493.729 594.016 494.761 593.76 495.945 593.76C497.737 593.76 499.153 594.32 500.193 595.44C501.249 596.56 501.777 598.08 501.777 600C501.777 601.92 501.249 603.44 500.193 604.56C499.153 605.68 497.737 606.24 495.945 606.24ZM495.945 604.68C497.129 604.68 498.057 604.264 498.729 603.432C499.401 602.6 499.737 601.456 499.737 600C499.737 598.544 499.401 597.4 498.729 596.568C498.057 595.736 497.129 595.32 495.945 595.32C494.777 595.32 493.857 595.736 493.185 596.568C492.513 597.4 492.177 598.544 492.177 600C492.177 601.456 492.513 602.6 493.185 603.432C493.857 604.264 494.777 604.68 495.945 604.68ZM514.133 606.24C512.757 606.24 511.709 605.792 510.989 604.896C510.285 604 509.933 602.68 509.933 600.936V594H511.973V600.96C511.973 603.392 512.837 604.608 514.565 604.608C515.237 604.608 515.845 604.44 516.389 604.104C516.933 603.752 517.357 603.272 517.661 602.664C517.965 602.04 518.117 601.344 518.117 600.576V594H520.157V603.456C520.157 604.256 520.229 605.104 520.373 606H518.501C518.357 605.296 518.277 604.584 518.261 603.864H518.189C517.837 604.6 517.293 605.184 516.557 605.616C515.837 606.032 515.029 606.24 514.133 606.24ZM526.511 606.24C525.615 606.24 524.799 606.056 524.063 605.688C523.343 605.32 522.831 604.832 522.527 604.224L523.847 603.312C524.119 603.744 524.495 604.08 524.975 604.32C525.455 604.56 525.975 604.68 526.535 604.68C527.207 604.68 527.759 604.488 528.191 604.104C528.639 603.704 528.863 603.208 528.863 602.616C528.863 602.136 528.687 601.736 528.335 601.416C527.983 601.096 527.359 600.768 526.463 600.432C525.103 599.936 524.143 599.416 523.583 598.872C523.039 598.328 522.767 597.656 522.767 596.856C522.767 595.928 523.135 595.184 523.871 594.624C524.607 594.048 525.583 593.76 526.799 593.76C527.583 593.76 528.295 593.928 528.935 594.264C529.591 594.6 530.095 595.064 530.447 595.656L529.199 596.568C528.639 595.736 527.839 595.32 526.799 595.32C526.207 595.32 525.719 595.456 525.335 595.728C524.967 596 524.783 596.352 524.783 596.784C524.783 597.216 524.975 597.584 525.359 597.888C525.743 598.176 526.455 598.52 527.495 598.92C528.727 599.384 529.599 599.896 530.111 600.456C530.623 601 530.879 601.696 530.879 602.544C530.879 603.664 530.479 604.56 529.679 605.232C528.879 605.904 527.823 606.24 526.511 606.24ZM543.732 600.792H535.092C535.204 602.008 535.564 602.936 536.172 603.576C536.78 604.2 537.62 604.512 538.692 604.512C540.132 604.512 541.276 603.944 542.124 602.808L543.276 603.912C542.812 604.648 542.164 605.224 541.332 605.64C540.516 606.04 539.612 606.24 538.62 606.24C536.844 606.24 535.468 605.696 534.492 604.608C533.516 603.52 533.028 601.992 533.028 600.024C533.028 598.072 533.516 596.544 534.492 595.44C535.484 594.32 536.844 593.76 538.572 593.76C540.188 593.76 541.452 594.312 542.364 595.416C543.276 596.504 543.732 598.032 543.732 600V600.792ZM541.86 599.112C541.86 597.96 541.556 597.056 540.948 596.4C540.356 595.744 539.532 595.416 538.476 595.416C537.484 595.416 536.692 595.752 536.1 596.424C535.524 597.096 535.188 598.048 535.092 599.28H541.86V599.112Z" fill="#CAD1CD"/>
<circle cx="675" cy="454" r="32" fill="#6B5B05"/>
<g clip-path="url(#clip3_2660_859)">
<path d="M681.3 447.71C680.91 447.32 680.28 447.32 679.89 447.71L675 452.59L670.11 447.7C669.72 447.31 669.09 447.31 668.7 447.7C668.31 448.09 668.31 448.72 668.7 449.11L673.59 454L668.7 458.89C668.31 459.28 668.31 459.91 668.7 460.3C669.09 460.69 669.72 460.69 670.11 460.3L675 455.41L679.89 460.3C680.28 460.69 680.91 460.69 681.3 460.3C681.69 459.91 681.69 459.28 681.3 458.89L676.41 454L681.3 449.11C681.68 448.73 681.68 448.09 681.3 447.71Z" fill="#F4FDF8"/>
</g>
<circle cx="447" cy="954" r="32" fill="#F4FDF8"/>
<g clip-path="url(#clip4_2660_859)">
<path d="M443.875 947.125V950.875H440.125V947.125H443.875ZM445.75 945.25H438.25V952.75H445.75V945.25ZM443.875 957.125V960.875H440.125V957.125H443.875ZM445.75 955.25H438.25V962.75H445.75V955.25ZM453.875 947.125V950.875H450.125V947.125H453.875ZM455.75 945.25H448.25V952.75H455.75V945.25ZM448.25 955.25H450.125V957.125H448.25V955.25ZM450.125 957.125H452V959H450.125V957.125ZM452 955.25H453.875V957.125H452V955.25ZM448.25 959H450.125V960.875H448.25V959ZM450.125 960.875H452V962.75H450.125V960.875ZM452 959H453.875V960.875H452V959ZM453.875 957.125H455.75V959H453.875V957.125ZM453.875 960.875H455.75V962.75H453.875V960.875ZM458.25 947.75C457.562 947.75 457 947.188 457 946.5V944H454.5C453.812 944 453.25 943.438 453.25 942.75C453.25 942.062 453.812 941.5 454.5 941.5H458.25C458.938 941.5 459.5 942.062 459.5 942.75V946.5C459.5 947.188 458.938 947.75 458.25 947.75ZM459.5 965.25V961.5C459.5 960.812 458.938 960.25 458.25 960.25C457.562 960.25 457 960.812 457 961.5V964H454.5C453.812 964 453.25 964.562 453.25 965.25C453.25 965.938 453.812 966.5 454.5 966.5H458.25C458.938 966.5 459.5 965.938 459.5 965.25ZM435.75 966.5H439.5C440.188 966.5 440.75 965.938 440.75 965.25C440.75 964.562 440.188 964 439.5 964H437V961.5C437 960.812 436.438 960.25 435.75 960.25C435.062 960.25 434.5 960.812 434.5 961.5V965.25C434.5 965.938 435.062 966.5 435.75 966.5ZM434.5 942.75V946.5C434.5 947.188 435.062 947.75 435.75 947.75C436.438 947.75 437 947.188 437 946.5V944H439.5C440.188 944 440.75 943.438 440.75 942.75C440.75 942.062 440.188 941.5 439.5 941.5H435.75C435.062 941.5 434.5 942.062 434.5 942.75Z" fill="#0A0903"/>
</g>
<rect x="668.448" y="690.996" width="341" height="290" rx="13.5" transform="rotate(25.1948 668.448 690.996)" stroke="#003015" stroke-opacity="0.3" stroke-width="3"/>
</g>
<circle cx="175" cy="459" r="22" fill="#DAF1E4"/>
<g clip-path="url(#clip5_2660_859)">
<path d="M173.114 461.556L171.159 459.601C170.941 459.383 170.594 459.383 170.377 459.601C170.159 459.819 170.159 460.165 170.377 460.383L172.718 462.724C172.935 462.942 173.287 462.942 173.505 462.724L179.428 456.807C179.646 456.589 179.646 456.243 179.428 456.025C179.21 455.807 178.864 455.807 178.646 456.025L173.114 461.556Z" fill="#008037"/>
</g>
<defs>
<filter id="filter0_d_2660_859" x="122" y="0" width="656" height="379" filterUnits="userSpaceOnUse" color-interpolation-filters="sRGB">
<feFlood flood-opacity="0" result="BackgroundImageFix"/>
<feColorMatrix in="SourceAlpha" type="matrix" values="0 0 0 0 0 0 0 0 0 0 0 0 0 0 0 0 0 0 127 0" result="hardAlpha"/>
<feOffset dx="6" dy="4"/>
<feGaussianBlur stdDeviation="12.5"/>
<feComposite in2="hardAlpha" operator="out"/>
<feColorMatrix type="matrix" values="0 0 0 0 0.0583333 0 0 0 0 0.0583333 0 0 0 0 0.0583333 0 0 0 0.08 0"/>
<feBlend mode="normal" in2="BackgroundImageFix" result="effect1_dropShadow_2660_859"/>
<feBlend mode="normal" in="SourceGraphic" in2="effect1_dropShadow_2660_859" result="shape"/>
</filter>
<filter id="filter1_d_2660_859" x="0" y="376" width="350" height="397" filterUnits="userSpaceOnUse" color-interpolation-filters="sRGB">
<feFlood flood-opacity="0" result="BackgroundImageFix"/>
<feColorMatrix in="SourceAlpha" type="matrix" values="0 0 0 0 0 0 0 0 0 0 0 0 0 0 0 0 0 0 127 0" result="hardAlpha"/>
<feOffset dy="1"/>
<feGaussianBlur stdDeviation="7.5"/>
<feComposite in2="hardAlpha" operator="out"/>
<feColorMatrix type="matrix" values="0 0 0 0 0 0 0 0 0 0 0 0 0 0 0 0 0 0 0.08 0"/>
<feBlend mode="normal" in2="BackgroundImageFix" result="effect1_dropShadow_2660_859"/>
<feBlend mode="normal" in="SourceGraphic" in2="effect1_dropShadow_2660_859" result="shape"/>
</filter>
<clipPath id="clip0_2660_859">
<rect width="128" height="128" fill="white" transform="translate(111 529)"/>
</clipPath>
<clipPath id="clip1_2660_859">
<rect width="32" height="32" fill="white" transform="translate(427 142)"/>
</clipPath>
<clipPath id="clip2_2660_859">
<rect x="375" y="390" width="372" height="628" rx="16" fill="white"/>
</clipPath>
<clipPath id="clip3_2660_859">
<rect width="24" height="24" fill="white" transform="translate(663 442)"/>
</clipPath>
<clipPath id="clip4_2660_859">
<rect width="30" height="30" fill="white" transform="translate(432 939)"/>
</clipPath>
<clipPath id="clip5_2660_859">
<rect width="13.4095" height="13.4095" fill="white" transform="translate(168.086 452.505)"/>
</clipPath>
</defs>
</svg>
