<svg width="172" height="44" viewBox="0 0 172 44" fill="none" xmlns="http://www.w3.org/2000/svg">
<g clip-path="url(#clip0_2640_1105)">
<path d="M88.2354 20.2012C87.8882 19.8799 87.7153 19.452 87.7153 18.9175C87.7153 18.3844 87.8882 17.9565 88.2354 17.6338C88.5812 17.3125 89.0466 17.1511 89.6301 17.1511C90.2136 17.1511 90.6819 17.3125 91.0363 17.6338C91.3907 17.9565 91.5679 18.383 91.5679 18.9175C91.5679 19.452 91.395 19.8799 91.0478 20.2012C90.7006 20.5225 90.228 20.6839 89.6301 20.6839C89.0466 20.6839 88.5826 20.524 88.2354 20.2012Z" fill="#0A0903"/>
<path d="M3.12795 37.0498C1.84853 36.4159 0.805401 35.5039 0 34.3138L2.50841 31.9336C3.17262 32.7073 3.97802 33.3413 4.92606 33.8369C5.87266 34.3325 6.75874 34.5803 7.58576 34.5803C8.51218 34.5803 9.25707 34.3714 9.82186 33.955C10.3852 33.5386 10.6676 32.994 10.6676 32.3197C10.6676 31.8241 10.5768 31.4178 10.3953 31.1008C10.2138 30.7838 9.87085 30.4611 9.36801 30.1341C8.86374 29.807 8.03816 29.3661 6.88985 28.81C5.37847 28.0766 4.18982 27.3922 3.3239 26.7583C2.45799 26.1243 1.81828 25.4342 1.40477 24.6908C0.991263 23.9473 0.78523 23.0799 0.78523 22.0887C0.78523 20.998 1.07771 20.037 1.66123 19.2028C2.24475 18.37 3.07032 17.726 4.13939 17.2692C5.20701 16.814 6.43601 16.5849 7.82637 16.5849C9.35649 16.5849 10.7123 16.873 11.8908 17.4479C13.0694 18.0228 13.931 18.8167 14.4742 19.8266L11.7251 21.8495C10.718 20.6205 9.47895 20.0053 8.00791 20.0053C7.08148 20.0053 6.36541 20.184 5.86257 20.5413C5.3583 20.8986 5.1076 21.4043 5.1076 22.0584C5.1076 22.4546 5.23295 22.812 5.48509 23.1289C5.73722 23.4459 6.19539 23.7931 6.8596 24.1706C7.5238 24.5481 8.52083 25.0437 9.85068 25.6575C11.1402 26.2526 12.1516 26.8476 12.8879 27.4427C13.6227 28.0377 14.1514 28.7019 14.4742 29.4353C14.7955 30.1686 14.9583 31.0417 14.9583 32.0532C14.9583 33.2433 14.6514 34.2893 14.0362 35.1912C13.421 36.0932 12.545 36.7876 11.4067 37.2732C10.2685 37.7587 8.94442 38.0022 7.43303 38.0022C5.8424 38.0008 4.40593 37.6838 3.12795 37.0498Z" fill="#0A0903"/>
<path d="M19.2576 37.4057C18.4594 37.0095 17.8356 36.4577 17.3846 35.7517C16.9336 35.0457 16.7089 34.2562 16.7089 33.3859C16.7089 31.8962 17.3327 30.7551 18.5819 29.9612C19.8296 29.1673 21.6104 28.7711 23.9229 28.7711H26.3175V28.1616C26.3175 27.3879 26.0769 26.7929 25.5956 26.3765C25.1144 25.9601 24.4344 25.7526 23.5541 25.7526C22.6334 25.7526 21.7531 25.9082 20.9145 26.2166C20.0745 26.5263 19.3902 26.9514 18.8585 27.4931L17.1397 25.3449C17.9782 24.5899 18.9709 23.9949 20.1163 23.5598C21.2618 23.1246 22.449 22.9071 23.6765 22.9071C25.7224 22.9071 27.3289 23.3624 28.496 24.2715C29.663 25.1806 30.2451 26.4384 30.2451 28.0449V34.6639C30.2451 35.1091 30.2811 35.6321 30.3531 36.2315C30.4252 36.8309 30.5116 37.5196 30.6139 37.9071H27.1459C27.0235 37.6564 26.9313 37.2141 26.8693 36.9721C26.8074 36.73 26.7569 36.3957 26.7151 35.9707H26.6546C25.4876 37.3251 23.9229 38.0022 21.9591 38.0022C20.9549 38.0008 20.0558 37.8034 19.2576 37.4057ZM25.3493 34.504C25.9933 34.03 26.316 33.4248 26.316 32.69V31.2392H23.799C22.7559 31.2392 21.9519 31.4236 21.39 31.791C20.8266 32.1584 20.5457 32.6915 20.5457 33.3874C20.5457 33.968 20.7546 34.4175 21.1753 34.7374C21.5946 35.0573 22.1723 35.2157 22.91 35.2157C23.8926 35.2143 24.7052 34.978 25.3493 34.504Z" fill="#0A0903"/>
<path d="M46.8818 22.9071L41.123 38.6491C40.4991 40.3349 39.6404 41.6042 38.5454 42.4571C37.449 43.3101 36.1379 43.7366 34.6106 43.7366C33.8067 43.7366 32.9825 43.6256 32.1382 43.4052V40.3651C32.3789 40.4444 32.6814 40.5164 33.0431 40.5755C33.4047 40.636 33.726 40.6662 34.0084 40.6662C34.893 40.6662 35.6523 40.3608 36.2848 39.7485C36.9173 39.1361 37.4865 38.1679 37.9879 36.8438L32.3789 22.9071H36.4793L39.796 32.5387L42.7814 22.9071H46.8818Z" fill="#0A0903"/>
<path d="M51.7877 37.0498C50.5083 36.4159 49.4652 35.5039 48.6598 34.3138L51.1682 31.9336C51.8324 32.7073 52.6378 33.3413 53.5858 33.8369C54.5324 34.3325 55.4185 34.5803 56.2455 34.5803C57.172 34.5803 57.9169 34.3714 58.4816 33.955C59.045 33.5386 59.3274 32.994 59.3274 32.3197C59.3274 31.8241 59.2366 31.4178 59.0551 31.1008C58.8735 30.7838 58.5306 30.4611 58.0278 30.1341C57.5235 29.807 56.698 29.3661 55.5496 28.81C54.0383 28.0766 52.8496 27.3922 51.9837 26.7583C51.1178 26.1243 50.4781 25.4342 50.0646 24.6908C49.6511 23.9473 49.445 23.0799 49.445 22.0887C49.445 20.998 49.7375 20.037 50.321 19.2028C50.9045 18.37 51.7301 17.726 52.7992 17.2692C53.8668 16.814 55.0958 16.5849 56.4862 16.5849C58.0163 16.5849 59.3721 16.873 60.5506 17.4479C61.7292 18.0228 62.5908 18.8167 63.134 19.8266L60.3849 21.8495C59.3778 20.6205 58.1387 20.0053 56.6677 20.0053C55.7413 20.0053 55.0252 20.184 54.5224 20.5413C54.0181 20.8986 53.7674 21.4043 53.7674 22.0584C53.7674 22.4546 53.8927 22.812 54.1449 23.1289C54.397 23.4459 54.8552 23.7931 55.5194 24.1706C56.1836 24.5481 57.1806 25.0437 58.5105 25.6575C59.8 26.2526 60.8114 26.8476 61.5476 27.4427C62.2825 28.0377 62.8112 28.7019 63.134 29.4353C63.4553 30.1686 63.6181 31.0417 63.6181 32.0532C63.6181 33.2433 63.3112 34.2893 62.696 35.1912C62.0807 36.0932 61.2047 36.7876 60.0665 37.2732C58.9283 37.7587 57.6042 38.0022 56.0928 38.0022C54.5022 38.0008 53.0672 37.6838 51.7877 37.0498Z" fill="#0A0903"/>
<path d="M85.9431 22.9071L82.0803 37.9576H78.7002L75.6818 27.0609L72.6633 37.9576H69.253L65.3902 22.9071H69.4042L71.3061 32.2679L73.9615 22.9071H77.3718L80.0272 32.2679L81.929 22.9071H85.9431Z" fill="#0A0903"/>
<path d="M91.5449 22.9071H87.7081V37.9576H91.5449V22.9071Z" fill="#0A0903"/>
<path d="M97.3268 36.7113C96.4637 35.8814 96.0329 34.7143 96.0329 33.2116V26.6286H93.294V22.8322H96.0329V19.0069L99.7646 17.9392H99.8856V22.8322H104.25V26.6286H99.8856V32.6483C99.8856 33.4983 100.086 34.1207 100.488 34.517C100.888 34.9132 101.501 35.1106 102.323 35.1106C103.106 35.1106 103.838 34.9924 104.521 34.7547L104.701 37.3351C103.797 37.7501 102.544 37.9576 100.939 37.9576C99.3929 37.9576 98.1898 37.5426 97.3268 36.7113Z" fill="#0A0903"/>
<path d="M108.503 35.975C107.163 34.6236 106.493 32.7722 106.493 30.4179C106.493 28.0464 107.163 26.1892 108.503 24.8464C109.843 23.505 111.68 22.8336 114.017 22.8336C115.426 22.8336 116.655 23.0872 117.704 23.5914C118.751 24.0972 119.557 24.8161 120.121 25.7497L117.795 27.7035C117.411 27.0623 116.903 26.5667 116.269 26.2166C115.635 25.8665 114.943 25.6921 114.198 25.6921C112.99 25.6921 112.043 26.1099 111.359 26.947C110.674 27.7827 110.331 28.9411 110.331 30.4179C110.331 31.8962 110.674 33.0531 111.359 33.8888C112.043 34.7244 112.99 35.1423 114.198 35.1423C114.943 35.1423 115.629 34.9622 116.253 34.602C116.877 34.2418 117.391 33.7519 117.795 33.1295L120.121 35.0832C119.557 36.0168 118.751 36.7358 117.704 37.2415C116.656 37.7472 115.427 37.9993 114.017 37.9993C111.681 38.0008 109.843 37.3265 108.503 35.975Z" fill="#0A0903"/>
<path d="M121.871 16.5632H125.738V24.7685C126.2 24.1259 126.85 23.6202 127.687 23.2485C128.523 22.8768 129.435 22.8278 130.422 22.8278C132.133 22.8278 133.508 23.3897 134.547 24.5135C135.584 25.6373 136.103 26.9614 136.103 28.9281V37.9575H132.236V29.199C132.236 28.0348 131.984 27.1213 131.481 26.46C130.976 25.7973 130.282 25.4659 129.396 25.4659C128.288 25.4659 127.402 25.852 126.736 26.6243C126.072 27.3965 125.739 28.4454 125.739 29.7695V37.9561H121.872V16.5632H121.871Z" fill="#0A0903"/>
<path d="M145.204 -0.00140381L170.247 14.3532C170.921 14.7393 171.46 15.3272 171.756 16.0403C171.924 16.4423 172.029 16.912 171.978 17.4278C171.883 18.3989 171.192 18.8902 170.473 19.6481C169.938 20.21 169.118 20.8281 167.696 22.0268C167.663 21.9188 167.535 21.6176 167.5 21.511C167.359 21.0615 167.052 20.6811 166.64 20.4463L147.2 9.3205C147.2 9.3205 145.397 8.61884 145.204 5.87269C145.011 3.12655 145.204 -0.00140381 145.204 -0.00140381Z" fill="#008037"/>
<path d="M140.571 10.2772L165.815 24.8652C166.493 25.2571 167.038 25.855 167.336 26.5797C167.505 26.9875 167.611 27.4658 167.561 27.9888C167.466 28.9758 166.859 29.6198 166.133 30.3892C165.594 30.9612 164.669 31.611 163.149 32.4653C163.115 32.3558 163.081 32.2463 163.047 32.1383C162.904 31.6816 162.594 31.2954 162.18 31.0563L142.582 19.7504C142.582 19.7504 140.765 19.0372 140.571 16.2464C140.376 13.457 140.571 10.2772 140.571 10.2772Z" fill="#008037"/>
<path d="M145.373 26.1475L159.22 34.0949C159.315 34.1496 159.314 34.2836 159.219 34.3355L152.757 37.9115C152.464 38.0729 152.104 38.0671 151.817 37.8957L146.393 34.7908C146.393 34.7908 145.201 34.0027 145.135 30.7479C145.083 28.2078 145.174 26.7267 145.188 26.2454C145.191 26.1561 145.292 26.1014 145.373 26.1475Z" fill="#008037"/>
</g>
<defs>
<clipPath id="clip0_2640_1105">
<rect width="172" height="43.7366" fill="white"/>
</clipPath>
</defs>
</svg>
