<svg width="184" height="45" viewBox="0 0 184 45" fill="none" xmlns="http://www.w3.org/2000/svg">
<g clip-path="url(#clip0_2655_1541)">
<path d="M55.5004 32.184H68.4366V28.2328H60.0982V13.3499H55.5004V32.184Z" fill="#2F234F"/>
<path d="M76.1009 29.5498C74.2566 29.5498 73.2954 27.9167 73.2954 25.4669C73.2954 23.0171 74.2566 21.3576 76.1009 21.3576C77.9452 21.3576 78.9323 23.0171 78.9323 25.4669C78.9323 27.9167 77.9452 29.5498 76.1009 29.5498ZM76.1269 32.6054C80.413 32.6054 83.2184 29.5235 83.2184 25.4669C83.2184 21.4103 80.413 18.3284 76.1269 18.3284C71.8667 18.3284 69.0093 21.4103 69.0093 25.4669C69.0093 29.5235 71.8667 32.6054 76.1269 32.6054Z" fill="#2F234F"/>
<path d="M90.6373 36.8464C92.6115 36.8464 94.3519 36.3986 95.5209 35.3449C96.5859 34.3703 97.2873 32.8952 97.2873 30.8669V18.6971H93.235V20.1459H93.183C92.4037 19.0132 91.2088 18.302 89.4424 18.302C86.1434 18.302 83.8575 21.0942 83.8575 25.0454C83.8575 29.181 86.6369 31.4464 89.6242 31.4464C91.2348 31.4464 92.2479 30.7879 93.0271 29.8922H93.1311V31.2357C93.1311 32.8688 92.3777 33.8171 90.5854 33.8171C89.1826 33.8171 88.4813 33.2113 88.2475 32.5001H84.1432C84.5588 35.3186 86.9746 36.8464 90.6373 36.8464ZM90.6113 28.2591C89.0268 28.2591 87.9877 26.942 87.9877 24.9137C87.9877 22.8591 89.0268 21.542 90.6113 21.542C92.3777 21.542 93.3129 23.0698 93.3129 24.8874C93.3129 26.784 92.4557 28.2591 90.6113 28.2591Z" fill="#2F234F"/>
<path d="M105.62 29.5498C103.775 29.5498 102.814 27.9167 102.814 25.4669C102.814 23.0171 103.775 21.3576 105.62 21.3576C107.464 21.3576 108.451 23.0171 108.451 25.4669C108.451 27.9167 107.464 29.5498 105.62 29.5498ZM105.646 32.6054C109.931 32.6054 112.737 29.5235 112.737 25.4669C112.737 21.4103 109.931 18.3284 105.646 18.3284C101.386 18.3284 98.5281 21.4103 98.5281 25.4669C98.5281 29.5235 101.386 32.6054 105.646 32.6054Z" fill="#2F234F"/>
<path d="M113.974 32.184H118.208V18.6972H113.974V32.184ZM113.974 16.8269H118.208V13.3499H113.974V16.8269Z" fill="#2F234F"/>
<path d="M120.045 36.6357H124.279V30.7879H124.331C125.162 31.9205 126.383 32.6054 128.098 32.6054C131.578 32.6054 133.89 29.8132 133.89 25.4405C133.89 21.384 131.734 18.302 128.201 18.302C126.383 18.302 125.084 19.1186 124.175 20.3303H124.097V18.6971H120.045V36.6357ZM127.007 29.2864C125.188 29.2864 124.149 27.7849 124.149 25.5986C124.149 23.4122 125.084 21.7527 126.929 21.7527C128.747 21.7527 129.604 23.2805 129.604 25.5986C129.604 27.8903 128.617 29.2864 127.007 29.2864Z" fill="#2F234F"/>
<path d="M140.784 32.6054C144.265 32.6054 146.836 31.0776 146.836 28.1274C146.836 24.6766 144.083 24.0708 141.745 23.6757C140.056 23.3596 138.55 23.2279 138.55 22.2796C138.55 21.4366 139.355 21.0415 140.394 21.0415C141.563 21.0415 142.368 21.4103 142.524 22.622H146.421C146.213 19.9615 144.187 18.302 140.42 18.302C137.277 18.302 134.679 19.7771 134.679 22.622C134.679 25.783 137.147 26.4152 139.459 26.8103C141.225 27.1264 142.836 27.2581 142.836 28.4698C142.836 29.3391 142.031 29.8132 140.758 29.8132C139.355 29.8132 138.472 29.1547 138.316 27.8113H134.316C134.446 30.7879 136.887 32.6054 140.784 32.6054Z" fill="#2F234F"/>
<path d="M152.588 32.5792C154.432 32.5792 155.601 31.8417 156.562 30.5246H156.64V32.1841H160.693V18.6973H156.458V26.2309C156.458 27.8378 155.575 28.9441 154.121 28.9441C152.77 28.9441 152.12 28.1275 152.12 26.6524V18.6973H147.912V27.548C147.912 30.5509 149.523 32.5792 152.588 32.5792Z" fill="#2F234F"/>
<path d="M162.535 32.184H166.769V24.624C166.769 23.0171 167.548 21.8844 168.873 21.8844C170.146 21.8844 170.743 22.7274 170.743 24.1761V32.184H174.978V24.624C174.978 23.0171 175.731 21.8844 177.082 21.8844C178.354 21.8844 178.952 22.7274 178.952 24.1761V32.184H183.186V23.4122C183.186 20.383 181.679 18.302 178.666 18.302C176.952 18.302 175.523 19.0396 174.484 20.6727H174.432C173.757 19.224 172.432 18.302 170.691 18.302C168.769 18.302 167.496 19.224 166.665 20.6201H166.587V18.6971H162.535V32.184Z" fill="#2F234F"/>
<path fill-rule="evenodd" clip-rule="evenodd" d="M21.7568 44.2571C33.7123 44.2571 43.4039 34.4292 43.4039 22.3059C43.4039 10.1826 33.7123 0.354736 21.7568 0.354736C9.8015 0.354736 0.109802 10.1826 0.109802 22.3059C0.109802 34.4292 9.8015 44.2571 21.7568 44.2571ZM25.098 17.3149C26.9432 15.4436 26.9432 12.4099 25.098 10.5386C23.2527 8.66742 20.261 8.66742 18.4157 10.5386C16.5705 12.4099 16.5705 15.4436 18.4157 17.3149L21.7568 20.7029L25.098 17.3149ZM26.6788 25.6941C28.5241 27.5653 31.5159 27.5653 33.3612 25.6941C35.2063 23.8228 35.2063 20.7891 33.3612 18.9178C31.5159 17.0467 28.5241 17.0467 26.6788 18.9178L23.3377 22.306L26.6788 25.6941ZM25.098 34.0733C26.9432 32.2021 26.9432 29.1683 25.098 27.2971L21.7568 23.909L18.4157 27.2971C16.5705 29.1683 16.5705 32.2021 18.4157 34.0733C20.261 35.9445 23.2527 35.9445 25.098 34.0733ZM10.1526 25.6941C8.30731 23.8228 8.30731 20.7891 10.1526 18.9178C11.9979 17.0467 14.9896 17.0467 16.8349 18.9178L20.176 22.306L16.8349 25.6941C14.9896 27.5653 11.9979 27.5653 10.1526 25.6941Z" fill="#7F57F1"/>
</g>
<defs>
<clipPath id="clip0_2655_1541">
<rect width="184" height="45" fill="white"/>
</clipPath>
</defs>
</svg>
