<svg width="241" height="45" viewBox="0 0 241 45" fill="none" xmlns="http://www.w3.org/2000/svg">
<g clip-path="url(#clip0_2655_1529)">
<path d="M16.2432 37.1917C11.6002 41.8255 3.73673 41.807 1.54066 35.6313C1.1107 34.4222 0.766938 33.179 0.514098 31.9104C-0.518242 26.7308 0.0115924 21.3621 2.03661 16.483C4.06161 11.6041 7.49084 7.43394 11.8906 4.49997C16.2905 1.566 21.4633 -2.26218e-07 26.7549 0C32.0465 2.26218e-07 37.2193 1.566 41.619 4.49997C46.0189 7.43394 49.4481 11.6041 51.4731 16.4832C53.4981 21.3621 54.0279 26.7308 52.9956 31.9104C52.7428 33.179 52.399 34.4222 51.9689 35.6313C49.7729 41.807 41.9094 41.8255 37.2664 37.1917L30.0992 30.0389C29.4144 29.3555 29.4852 28.2285 29.6741 27.2807C29.7888 26.7046 29.7299 26.1073 29.5046 25.5645C29.2793 25.0217 28.8979 24.5577 28.4085 24.2314C27.919 23.9051 27.3436 23.7308 26.7549 23.7308C26.1662 23.7308 25.5908 23.9051 25.1013 24.2314C24.6117 24.5577 24.2303 25.0217 24.005 25.5645C23.7797 26.1073 23.7208 26.7046 23.8357 27.2807C24.0246 28.2285 24.0952 29.3555 23.4104 30.0389L16.2432 37.1917Z" fill="url(#paint0_linear_2655_1529)"/>
<path d="M75.2768 30.7812H82.4684V35.0107H69.7866V12.5176H75.2768V30.7812Z" fill="#3A3B7B"/>
<path d="M92.2788 35.2671C90.5237 35.2671 88.9397 34.8932 87.527 34.1456C86.1359 33.398 85.0335 32.33 84.2202 30.9415C83.4283 29.553 83.0323 27.9296 83.0323 26.0711C83.0323 24.2341 83.4389 22.6213 84.2522 21.2328C85.0657 19.8231 86.1787 18.7443 87.5912 17.9967C89.004 17.2491 90.5879 16.8752 92.343 16.8752C94.0981 16.8752 95.682 17.2491 97.0946 17.9967C98.5073 18.7443 99.6202 19.8231 100.434 21.2328C101.247 22.6213 101.654 24.2341 101.654 26.0711C101.654 27.9082 101.236 29.5316 100.402 30.9415C99.5882 32.33 98.4645 33.398 97.0303 34.1456C95.6178 34.8932 94.0339 35.2671 92.2788 35.2671ZM92.2788 30.5248C93.3275 30.5248 94.2158 30.1405 94.9436 29.3714C95.6927 28.6024 96.0673 27.5024 96.0673 26.0711C96.0673 24.6399 95.7033 23.5399 94.9756 22.7709C94.2693 22.0018 93.3917 21.6173 92.343 21.6173C91.2728 21.6173 90.3845 22.0018 89.6781 22.7709C88.9718 23.5185 88.6187 24.6185 88.6187 26.0711C88.6187 27.5024 88.9612 28.6024 89.6461 29.3714C90.3525 30.1405 91.23 30.5248 92.2788 30.5248Z" fill="#3A3B7B"/>
<path d="M110.409 16.8752C111.672 16.8752 112.775 17.1316 113.716 17.6443C114.679 18.1568 115.418 18.8298 115.932 19.6628V17.1316H121.422V34.9786C121.422 36.6234 121.09 38.1081 120.426 39.4323C119.784 40.7782 118.789 41.8462 117.441 42.6365C116.114 43.427 114.455 43.8222 112.464 43.8222C109.81 43.8222 107.659 43.192 106.011 41.9317C104.363 40.6927 103.421 39.0052 103.186 36.8691H108.612C108.783 37.5526 109.19 38.0867 109.832 38.4712C110.474 38.877 111.266 39.08 112.207 39.08C113.342 39.08 114.241 38.7488 114.904 38.0867C115.589 37.4458 115.932 36.4099 115.932 34.9786V32.4474C115.397 33.2804 114.658 33.9641 113.716 34.498C112.775 35.0107 111.672 35.2671 110.409 35.2671C108.933 35.2671 107.595 34.8932 106.396 34.1456C105.198 33.3766 104.245 32.2978 103.539 30.9093C102.854 29.4996 102.511 27.8762 102.511 26.0391C102.511 24.202 102.854 22.5893 103.539 21.2008C104.245 19.8123 105.198 18.7443 106.396 17.9967C107.595 17.2491 108.933 16.8752 110.409 16.8752ZM115.932 26.0711C115.932 24.704 115.546 23.6252 114.776 22.835C114.027 22.0447 113.106 21.6494 112.015 21.6494C110.923 21.6494 109.992 22.0447 109.222 22.835C108.472 23.604 108.098 24.672 108.098 26.0391C108.098 27.4062 108.472 28.4956 109.222 29.3073C109.992 30.0976 110.923 30.4929 112.015 30.4929C113.106 30.4929 114.027 30.0976 114.776 29.3073C115.546 28.5169 115.932 27.4383 115.932 26.0711Z" fill="#3A3B7B"/>
<path d="M132.585 35.2671C130.83 35.2671 129.246 34.8932 127.834 34.1456C126.442 33.398 125.34 32.33 124.527 30.9415C123.735 29.553 123.339 27.9296 123.339 26.0711C123.339 24.2341 123.745 22.6213 124.559 21.2328C125.372 19.8231 126.485 18.7443 127.898 17.9967C129.31 17.2491 130.894 16.8752 132.649 16.8752C134.405 16.8752 135.989 17.2491 137.401 17.9967C138.814 18.7443 139.927 19.8231 140.74 21.2328C141.553 22.6213 141.96 24.2341 141.96 26.0711C141.96 27.9082 141.543 29.5316 140.708 30.9415C139.895 32.33 138.771 33.398 137.337 34.1456C135.924 34.8932 134.34 35.2671 132.585 35.2671ZM132.585 30.5248C133.634 30.5248 134.522 30.1405 135.25 29.3714C135.999 28.6024 136.374 27.5024 136.374 26.0711C136.374 24.6399 136.01 23.5399 135.282 22.7709C134.576 22.0018 133.698 21.6173 132.649 21.6173C131.579 21.6173 130.691 22.0018 129.985 22.7709C129.278 23.5185 128.925 24.6185 128.925 26.0711C128.925 27.5024 129.268 28.6024 129.953 29.3714C130.659 30.1405 131.537 30.5248 132.585 30.5248Z" fill="#3A3B7B"/>
<path d="M146.671 15.2731C145.708 15.2731 144.916 14.9954 144.295 14.4401C143.696 13.8633 143.396 13.1584 143.396 12.3253C143.396 11.4709 143.696 10.766 144.295 10.2106C144.916 9.63383 145.708 9.34546 146.671 9.34546C147.613 9.34546 148.383 9.63383 148.982 10.2106C149.603 10.766 149.913 11.4709 149.913 12.3253C149.913 13.1584 149.603 13.8633 148.982 14.4401C148.383 14.9954 147.613 15.2731 146.671 15.2731ZM149.4 17.1316V35.0107H143.91V17.1316H149.4Z" fill="#3A3B7B"/>
<path d="M157.905 19.6628C158.44 18.8298 159.178 18.1568 160.12 17.6443C161.063 17.1316 162.165 16.8752 163.428 16.8752C164.905 16.8752 166.242 17.2491 167.441 17.9967C168.639 18.7443 169.582 19.8123 170.266 21.2008C170.972 22.5893 171.326 24.202 171.326 26.0391C171.326 27.8762 170.972 29.4996 170.266 30.9093C169.582 32.2978 168.639 33.3766 167.441 34.1456C166.242 34.8932 164.905 35.2671 163.428 35.2671C162.185 35.2671 161.084 35.0107 160.12 34.498C159.178 33.9853 158.44 33.3232 157.905 32.5115V43.5337H152.415V17.1316H157.905V19.6628ZM165.74 26.0391C165.74 24.672 165.354 23.604 164.583 22.835C163.833 22.0447 162.904 21.6494 161.79 21.6494C160.699 21.6494 159.767 22.0447 158.996 22.835C158.248 23.6252 157.874 24.704 157.874 26.0711C157.874 27.4383 158.248 28.5169 158.996 29.3073C159.767 30.0976 160.699 30.4929 161.79 30.4929C162.882 30.4929 163.813 30.0976 164.583 29.3073C165.354 28.4956 165.74 27.4062 165.74 26.0391Z" fill="#3A3B7B"/>
<path d="M180.531 35.2671C178.968 35.2671 177.577 35 176.356 34.4661C175.137 33.9319 174.173 33.2057 173.467 32.2871C172.761 31.3472 172.365 30.3006 172.279 29.1471H177.706C177.769 29.7665 178.059 30.2685 178.572 30.653C179.086 31.0375 179.718 31.2298 180.467 31.2298C181.151 31.2298 181.675 31.1016 182.039 30.8453C182.425 30.5677 182.617 30.2151 182.617 29.7879C182.617 29.2752 182.35 28.9014 181.815 28.6665C181.28 28.4101 180.413 28.1325 179.214 27.8334C177.93 27.5343 176.86 27.2246 176.003 26.9042C175.148 26.5625 174.409 26.0391 173.789 25.3342C173.167 24.608 172.858 23.636 172.858 22.4185C172.858 21.3931 173.136 20.4639 173.693 19.6308C174.269 18.7764 175.104 18.1034 176.196 17.6122C177.309 17.1209 178.626 16.8752 180.145 16.8752C182.392 16.8752 184.158 17.4306 185.442 18.5413C186.749 19.6522 187.498 21.126 187.691 22.9631H182.617C182.532 22.3437 182.254 21.8524 181.782 21.4891C181.333 21.126 180.734 20.9445 179.985 20.9445C179.343 20.9445 178.85 21.0727 178.508 21.329C178.166 21.5639 177.995 21.8951 177.995 22.3223C177.995 22.835 178.262 23.2195 178.797 23.4758C179.354 23.7322 180.209 23.9885 181.366 24.2447C182.692 24.5865 183.773 24.9284 184.608 25.2701C185.443 25.5905 186.17 26.1245 186.791 26.8722C187.433 27.5984 187.765 28.581 187.787 29.82C187.787 30.8667 187.487 31.8066 186.887 32.6397C186.31 33.4514 185.464 34.0922 184.351 34.5621C183.26 35.0321 181.986 35.2671 180.531 35.2671Z" fill="#3A3B7B"/>
<path d="M207.873 17.1316V35.0107H202.382V32.5756C201.826 33.3659 201.066 34.0067 200.103 34.498C199.161 34.968 198.113 35.203 196.956 35.203C195.586 35.203 194.377 34.904 193.329 34.3058C192.279 33.6863 191.466 32.7998 190.889 31.6464C190.311 30.4929 190.021 29.1365 190.021 27.577V17.1316H195.479V26.8401C195.479 28.0363 195.79 28.9655 196.41 29.6278C197.031 30.2899 197.866 30.621 198.915 30.621C199.985 30.621 200.831 30.2899 201.451 29.6278C202.071 28.9655 202.382 28.0363 202.382 26.8401V17.1316H207.873Z" fill="#3A3B7B"/>
<path d="M233.712 16.9392C235.937 16.9392 237.704 17.612 239.01 18.9578C240.336 20.3035 241 22.1726 241 24.565V35.0106H235.543V25.3021C235.543 24.1485 235.232 23.262 234.611 22.6426C234.011 22.0017 233.178 21.6813 232.106 21.6813C231.037 21.6813 230.191 22.0017 229.57 22.6426C228.972 23.262 228.672 24.1485 228.672 25.3021V35.0106H223.213V25.3021C223.213 24.1485 222.903 23.262 222.283 22.6426C221.683 22.0017 220.848 21.6813 219.778 21.6813C218.708 21.6813 217.862 22.0017 217.242 22.6426C216.642 23.262 216.343 24.1485 216.343 25.3021V35.0106H210.853V17.1315H216.343V19.3743C216.9 18.6267 217.628 18.0392 218.526 17.612C219.425 17.1634 220.442 16.9392 221.575 16.9392C222.925 16.9392 224.124 17.2275 225.172 17.8043C226.241 18.3811 227.076 19.2035 227.677 20.2715C228.297 19.2888 229.143 18.4878 230.213 17.8684C231.282 17.2489 232.45 16.9392 233.712 16.9392Z" fill="#3A3B7B"/>
</g>
<defs>
<linearGradient id="paint0_linear_2655_1529" x1="51.0743" y1="13.3506" x2="3.58448" y2="13.3506" gradientUnits="userSpaceOnUse">
<stop stop-color="#64C2DB"/>
<stop offset="0.510417" stop-color="#7476ED"/>
<stop offset="1" stop-color="#E56F8C"/>
</linearGradient>
<clipPath id="clip0_2655_1529">
<rect width="241" height="45" fill="white"/>
</clipPath>
</defs>
</svg>
