<svg width="128" height="132" viewBox="0 0 128 132" fill="none" xmlns="http://www.w3.org/2000/svg">
<path d="M58.8267 12.3867L64 17.56L69.1733 12.3867C69.6933 11.8667 70.5333 11.8667 71.0533 12.3867C71.5733 12.9067 71.5733 13.7467 71.0533 14.2667L64.9333 20.3867C64.4133 20.9067 63.5733 20.9067 63.0533 20.3867L56.9333 14.2667C56.4133 13.7467 56.4133 12.9067 56.9333 12.3867C57.4533 11.88 58.3067 11.8667 58.8267 12.3867Z" fill="#008037" fill-opacity="0.25"/>
<path d="M53.6533 25.7733L64 36.12L74.3467 25.7733C75.3867 24.7333 77.0667 24.7333 78.1067 25.7733C79.1467 26.8133 79.1467 28.4933 78.1067 29.5333L65.8667 41.7733C64.8267 42.8133 63.1467 42.8133 62.1067 41.7733L49.8667 29.5333C48.8267 28.4933 48.8267 26.8133 49.8667 25.7733C50.9067 24.76 52.6133 24.7333 53.6533 25.7733Z" fill="#008037" fill-opacity="0.5"/>
<path d="M43.3067 53.5467L64 74.24L84.6933 53.5467C86.7733 51.4667 90.1333 51.4667 92.2133 53.5467C94.2933 55.6267 94.2933 58.9867 92.2133 61.0667L67.7333 85.5467C65.6533 87.6267 62.2933 87.6267 60.2133 85.5467L35.7333 61.0667C33.6533 58.9867 33.6533 55.6267 35.7333 53.5467C37.8133 51.52 41.2267 51.4667 43.3067 53.5467Z" fill="#008037"/>
</svg>
