<svg width="64" height="65" viewBox="0 0 64 65" fill="none" xmlns="http://www.w3.org/2000/svg">
<rect y="0.5" width="64" height="64" rx="15" fill="#DFE6EC"/>
<mask id="mask0_2640_1138" style="mask-type:alpha" maskUnits="userSpaceOnUse" x="20" y="20" width="24" height="25">
<rect x="20" y="20.5" width="24" height="24" fill="#D9D9D9"/>
</mask>
<g mask="url(#mask0_2640_1138)">
<path d="M21 40.5V37.7C21 37.1333 21.146 36.6123 21.438 36.137C21.7293 35.6623 22.1167 35.3 22.6 35.05C23.6333 34.5333 24.6833 34.1457 25.75 33.887C26.8167 33.629 27.9 33.5 29 33.5C30.1 33.5 31.1833 33.629 32.25 33.887C33.3167 34.1457 34.3667 34.5333 35.4 35.05C35.8833 35.3 36.2707 35.6623 36.562 36.137C36.854 36.6123 37 37.1333 37 37.7V40.5H21ZM39 40.5V37.5C39 36.7667 38.796 36.0623 38.388 35.387C37.9793 34.7123 37.4 34.1333 36.65 33.65C37.5 33.75 38.3 33.9207 39.05 34.162C39.8 34.404 40.5 34.7 41.15 35.05C41.75 35.3833 42.2083 35.754 42.525 36.162C42.8417 36.5707 43 37.0167 43 37.5V40.5H39ZM29 32.5C27.9 32.5 26.9583 32.1083 26.175 31.325C25.3917 30.5417 25 29.6 25 28.5C25 27.4 25.3917 26.4583 26.175 25.675C26.9583 24.8917 27.9 24.5 29 24.5C30.1 24.5 31.0417 24.8917 31.825 25.675C32.6083 26.4583 33 27.4 33 28.5C33 29.6 32.6083 30.5417 31.825 31.325C31.0417 32.1083 30.1 32.5 29 32.5ZM39 28.5C39 29.6 38.6083 30.5417 37.825 31.325C37.0417 32.1083 36.1 32.5 35 32.5C34.8167 32.5 34.5833 32.4793 34.3 32.438C34.0167 32.396 33.7833 32.35 33.6 32.3C34.05 31.7667 34.3957 31.175 34.637 30.525C34.879 29.875 35 29.2 35 28.5C35 27.8 34.879 27.125 34.637 26.475C34.3957 25.825 34.05 25.2333 33.6 24.7C33.8333 24.6167 34.0667 24.5623 34.3 24.537C34.5333 24.5123 34.7667 24.5 35 24.5C36.1 24.5 37.0417 24.8917 37.825 25.675C38.6083 26.4583 39 27.4 39 28.5ZM23 38.5H35V37.7C35 37.5167 34.9543 37.35 34.863 37.2C34.771 37.05 34.65 36.9333 34.5 36.85C33.6 36.4 32.6917 36.0623 31.775 35.837C30.8583 35.6123 29.9333 35.5 29 35.5C28.0667 35.5 27.1417 35.6123 26.225 35.837C25.3083 36.0623 24.4 36.4 23.5 36.85C23.35 36.9333 23.2293 37.05 23.138 37.2C23.046 37.35 23 37.5167 23 37.7V38.5ZM29 30.5C29.55 30.5 30.021 30.304 30.413 29.912C30.8043 29.5207 31 29.05 31 28.5C31 27.95 30.8043 27.4793 30.413 27.088C30.021 26.696 29.55 26.5 29 26.5C28.45 26.5 27.9793 26.696 27.588 27.088C27.196 27.4793 27 27.95 27 28.5C27 29.05 27.196 29.5207 27.588 29.912C27.9793 30.304 28.45 30.5 29 30.5Z" fill="#008037"/>
</g>
</svg>
