<svg width="64" height="65" viewBox="0 0 64 65" fill="none" xmlns="http://www.w3.org/2000/svg">
<rect y="0.5" width="64" height="64" rx="15" fill="#DFE6EC"/>
<g clip-path="url(#clip0_2640_1178)">
<path d="M32 22C26.48 22 22 26.48 22 32C22 37.52 26.48 42 32 42C37.52 42 42 37.52 42 32C42 26.48 37.52 22 32 22ZM33 25.3L34.35 24.35C36.17 24.91 37.72 26.11 38.73 27.69L38.34 29.03L36.99 29.49L33 26.7V25.3ZM29.65 24.35L31 25.3V26.7L27.01 29.49L25.66 29.03L25.27 27.69C26.28 26.12 27.83 24.92 29.65 24.35ZM27.08 37.11L25.94 37.21C24.73 35.81 24 33.99 24 32C24 31.88 24.01 31.77 24.02 31.65L25.02 30.92L26.4 31.4L27.86 35.74L27.08 37.11ZM34.5 39.59C33.71 39.85 32.87 40 32 40C31.13 40 30.29 39.85 29.5 39.59L28.81 38.1L29.45 37H34.56L35.2 38.11L34.5 39.59ZM34.27 35H29.73L28.38 30.98L32 28.44L35.63 30.98L34.27 35ZM38.06 37.21L36.92 37.11L36.13 35.74L37.59 31.4L38.98 30.93L39.98 31.66C39.99 31.77 40 31.88 40 32C40 33.99 39.27 35.81 38.06 37.21Z" fill="#F9990F"/>
</g>
<defs>
<clipPath id="clip0_2640_1178">
<rect width="24" height="24" fill="white" transform="translate(20 20)"/>
</clipPath>
</defs>
</svg>
